<svg xmlns="http://www.w3.org/2000/svg" width="259" height="253" viewBox="0 0 259 253" fill="none">
    <path fill-rule="evenodd" clip-rule="evenodd" d="M129.5 0C57.9512 0 0 57.9513 0 129.5C0 186.804 37.0694 235.204 88.5456 252.363C95.0206 253.496 97.4487 249.611 97.4487 246.212C97.4487 243.136 97.2869 232.938 97.2869 222.093C64.75 228.082 56.3325 214.161 53.7425 206.876C52.2856 203.153 45.9725 191.66 40.4688 188.584C35.9362 186.156 29.4612 180.167 40.3069 180.005C50.505 179.843 57.7894 189.394 60.2175 193.279C71.8725 212.866 90.4881 207.362 97.9344 203.963C99.0675 195.545 102.467 189.879 106.19 186.642C77.3762 183.404 47.2675 172.235 47.2675 122.701C47.2675 108.618 52.2856 96.9632 60.5413 87.8982C59.2463 84.6607 54.7137 71.3869 61.8362 53.5806C61.8362 53.5806 72.6819 50.1813 97.4487 66.8544C107.809 63.9407 118.816 62.4838 129.824 62.4838C140.831 62.4838 151.839 63.9407 162.199 66.8544C186.966 50.0194 197.811 53.5806 197.811 53.5806C204.934 71.3869 200.401 84.6607 199.106 87.8982C207.362 96.9632 212.38 108.456 212.38 122.701C212.38 172.397 182.109 183.404 153.296 186.642C157.99 190.689 162.037 198.459 162.037 210.599C162.037 227.92 161.875 241.841 161.875 246.212C161.875 249.611 164.303 253.658 170.778 252.363C221.931 235.204 259 186.642 259 129.5C259 57.9513 201.049 0 129.5 0Z" fill="white"></path>
</svg>