<svg xmlns="http://www.w3.org/2000/svg" width="123" height="135" fill="none" viewBox="0 0 123 135">
  <path fill="#306998" d="M59.919 11c-4.584.022-8.961.413-12.813 1.095C35.76 14.099 33.7 18.295 33.7 26.032v10.219h26.813v3.406H23.637c-7.792 0-14.615 4.684-16.75 13.594-2.461 10.213-2.57 16.586 0 27.25 1.906 7.938 6.458 13.594 14.25 13.594h9.22v-12.25c0-8.85 7.656-16.657 16.75-16.657h26.78c7.456 0 13.407-6.138 13.407-13.625v-25.53c0-7.267-6.13-12.726-13.406-13.938-4.607-.767-9.386-1.115-13.97-1.094Zm-14.5 8.22c2.77 0 5.031 2.298 5.031 5.125 0 2.816-2.262 5.093-5.031 5.093-2.78 0-5.031-2.277-5.031-5.093 0-2.827 2.251-5.125 5.03-5.125Z"/>
  <path fill="#FFD43B" d="M90.638 39.657v11.906c0 9.231-7.826 17-16.75 17H47.106c-7.336 0-13.406 6.279-13.406 13.625v25.532c0 7.266 6.319 11.54 13.406 13.625 8.488 2.495 16.627 2.946 26.782 0 6.75-1.955 13.406-5.888 13.406-13.625V97.5H60.513v-3.405H100.7c7.793 0 10.696-5.436 13.406-13.594 2.8-8.399 2.68-16.476 0-27.25-1.926-7.758-5.604-13.594-13.406-13.594H90.637Zm-15.063 64.656c2.78 0 5.031 2.278 5.031 5.094 0 2.827-2.251 5.125-5.031 5.125-2.77 0-5.031-2.298-5.031-5.125 0-2.816 2.261-5.094 5.031-5.094Z"/>
</svg>
