<svg width="294" height="344" viewBox="0 0 294 344" fill="none" xmlns="http://www.w3.org/2000/svg">
<path d="M221.17 338.74L79.6802 334.72C79.6802 334.72 90.3303 271.01 56.1603 253.33C32.8703 241.27 12.2002 184.94 18.0802 146.61C18.1602 146.1 18.2402 145.59 18.3302 145.09C21.3102 127.93 29.8302 114.64 46.1202 111.03C98.7802 99.3704 136.36 108.41 136.36 108.41C136.36 108.41 145.06 108.52 157.95 110.94C158.41 111.02 158.87 111.11 159.33 111.21C195.82 118.36 263.27 143.82 266.19 234.22C270.21 358.42 221.17 338.72 221.17 338.72V338.74Z" fill="#3F3D56"/>
<path d="M157.95 110.95C157.71 117.43 156.24 123.87 153.56 129.99C148 142.68 137.86 152.37 125.02 157.28C86.5597 172 41.6798 157.4 18.9798 141.57C18.8898 142.07 17.0898 151.56 17.0098 152.07C27.0598 158.95 76.2497 165.58 85.5797 165.58C99.7497 165.58 113.39 163.23 125.52 158.58C138.71 153.53 149.12 143.57 154.83 130.54C157.56 124.32 159.06 117.79 159.33 111.21C158.87 111.11 158.41 111.02 157.95 110.94V110.95Z" fill="#6C63FF"/>
<path d="M168.41 119.2L145.86 62.4902C145.86 62.4902 172.93 16.0902 151.66 10.9402C130.39 5.78015 108.48 33.4902 108.48 33.4902C108.48 33.4902 67.8796 19.3102 52.4196 30.9102C52.4196 30.9102 26.6396 -5.17985 11.1796 1.91015C-4.29044 9.00015 16.6796 60.0902 16.6796 60.0902C16.6796 60.0902 -15.2404 106.95 9.24957 134.01C33.7396 161.08 125.89 182.99 168.42 119.19L168.41 119.2Z" fill="#3F3D56"/>
<path d="M216.78 304.8C224.46 308.22 232.48 311.7 240.88 311.37C249.28 311.04 258.11 305.63 259.42 297.33C260.1 293.04 258.76 288.45 260.4 284.43C262.61 279.03 269.73 276.94 275.26 278.79C280.8 280.64 284.86 285.42 287.78 290.47C293.24 299.93 295.42 312.35 289.57 321.57C284.5 329.56 274.88 333.18 265.94 336.28C254.02 340.41 240.72 344.5 229.17 339.43C217.56 334.33 211.23 319.6 215.53 307.67" fill="#3F3D56"/>
<path d="M89.7396 93.7096C89.7396 93.7096 75.8596 88.1596 66.8496 95.0996L77.2596 111.06L89.7496 93.7196L89.7396 93.7096Z" fill="#6C63FF"/>
<path d="M16.8896 166.55L42.5596 303.23C42.5596 303.23 3.70964 342.78 53.6596 342.08C103.61 341.39 89.0396 315.72 89.0396 315.72L73.0796 197.08" fill="#3F3D56"/>
<path d="M52.4005 343.09C38.8705 343.09 30.6905 339.99 28.0705 333.86C23.3005 322.7 38.8304 305.69 41.4904 302.89L24.2305 200.71L26.2005 200.38L43.6305 303.56L43.2704 303.92C43.0904 304.1 25.3305 322.37 29.9105 333.07C32.2605 338.57 40.2305 341.26 53.6505 341.07C72.3005 340.81 84.3205 336.9 88.4205 329.77C92.1105 323.35 88.2105 316.27 88.1705 316.2L88.0804 316.03L88.0504 315.84L76.9505 233.28L78.9305 233.01L90.0105 315.39C90.6705 316.64 94.1205 323.85 90.1705 330.75C85.6405 338.65 73.3605 342.8 53.6805 343.07C53.2505 343.07 52.8305 343.07 52.4105 343.07L52.4005 343.09Z" fill="#2F2E41"/>
<path d="M82.0996 166.55L107.77 303.23C107.77 303.23 68.9196 342.78 118.87 342.08C168.82 341.39 154.25 315.72 154.25 315.72L138.29 197.08" fill="#3F3D56"/>
<path d="M117.61 343.09C104.08 343.09 95.9005 339.99 93.2805 333.86C88.5105 322.72 104.01 305.73 106.69 302.9L96.3805 247.9L98.3505 247.53L108.85 303.55L108.48 303.92C108.3 304.1 90.5405 322.37 95.1205 333.07C97.4705 338.57 105.45 341.27 118.86 341.07C137.52 340.81 149.55 336.9 153.64 329.75C157.33 323.31 153.42 316.27 153.38 316.2L153.28 316.03L137.3 197.2L139.28 196.93L155.21 315.39C155.87 316.64 159.32 323.85 155.37 330.75C150.84 338.65 138.56 342.8 118.88 343.07C118.45 343.07 118.03 343.07 117.61 343.07V343.09Z" fill="#2F2E41"/>
</svg>
