<svg width="16" height="18" viewBox="0 0 16 18" fill="none" xmlns="http://www.w3.org/2000/svg">
<path d="M0 6.71691H2.15873H4.31746V17.625H2.25C0.987635 17.625 0 16.3491 0 15.0882V6.71691Z" fill="white"/>
<path d="M0 2.65809C0 1.39717 1.02335 0.375 2.28571 0.375H4.31746V6.71691H2.15873H0V2.65809Z" fill="white"/>
<path d="M16 15.3419C16 16.6028 14.9766 17.625 13.7143 17.625H11.6825L11.6825 6.71691L13.7143 6.71691C14.9767 6.71691 16 7.73909 16 9L16 15.3419Z" fill="white"/>
<path d="M5.33333 6.71691H10.6667V10.2684H5.33333V6.71691Z" fill="white"/>
<path d="M5.33333 14.0735H10.6667V17.625H5.33333V14.0735Z" fill="white"/>
<rect y="2.75" width="4.3125" height="9.375" fill="white"/>
</svg>
