<svg width="80" height="123" viewBox="0 0 80 123" fill="none" xmlns="http://www.w3.org/2000/svg">
<path d="M50.2 121.63C56.91 119.78 62.92 116.19 67.71 111.4C74.9 104.21 79.36 94.29 79.36 83.37V39.68C79.36 28.76 74.9 18.84 67.71 11.65C60.52 4.46 50.6 0 39.68 0C28.77 0 18.84 4.46 11.65 11.65C4.46 18.84 0 28.77 0 39.68V83.36C0 94.28 4.46 104.2 11.65 111.39C17.24 116.98 24.47 120.92 32.54 122.4C37.42 123.3 45.7 122.87 50.2 121.63ZM61.08 104.77C55.59 110.26 48.01 113.68 39.68 113.68C31.35 113.68 23.78 110.27 18.28 104.77C12.79 99.28 9.37 91.7 9.37 83.37V39.68C9.37 31.35 12.78 23.78 18.28 18.28C23.77 12.79 31.35 9.37 39.68 9.37C48.01 9.37 55.58 12.78 61.08 18.28C66.57 23.77 69.99 31.35 69.99 39.68V83.36C69.99 91.7 66.58 99.27 61.08 104.77Z" fill="white"/>
</svg>
